<svg xmlns="http://www.w3.org/2000/svg" viewBox="0 0 880 360" width="880" height="360" font-family="Segoe UI, Arial, sans-serif">
  <rect width="880" height="360" fill="#0f172a" rx="14"/>
  <text x="440" y="34" fill="#f1f5f9" font-size="21" font-weight="700" text-anchor="middle">Feed-forward qatlam — kengaytir, keyin siq</text>
  <text x="440" y="55" fill="#94a3b8" font-size="12.5" text-anchor="middle">lin2( GELU( lin1(x) ) )  ·  modelning 42.7% i</text>

  <!-- funnel -->
  <rect x="70" y="130" width="70" height="70" rx="8" fill="#0c4a6e" stroke="#38bdf8" stroke-width="2"/>
  <text x="105" y="162" fill="#e0f2fe" font-size="13" font-weight="700" text-anchor="middle">768</text>
  <text x="105" y="180" fill="#7dd3fc" font-size="10.5" text-anchor="middle">kirish</text>

  <path d="M144 133 L300 88 L300 242 L144 197 Z" fill="#1e3a8a" opacity="0.55"/>
  <text x="222" y="120" fill="#93c5fd" font-size="11.5" text-anchor="middle">lin1</text>
  <text x="222" y="220" fill="#60a5fa" font-size="11" text-anchor="middle">KENGAYTIRISH 4×</text>

  <rect x="304" y="88" width="86" height="154" rx="9" fill="#3b0764" stroke="#a78bfa" stroke-width="2"/>
  <text x="347" y="150" fill="#f5f3ff" font-size="14" font-weight="700" text-anchor="middle">3072</text>
  <text x="347" y="170" fill="#c4b5fd" font-size="10.5" text-anchor="middle">GELU</text>
  <text x="347" y="188" fill="#a78bfa" font-size="10" text-anchor="middle">chiziqsizlik</text>

  <path d="M394 88 L550 133 L550 197 L394 242 Z" fill="#1e3a8a" opacity="0.55"/>
  <text x="472" y="120" fill="#93c5fd" font-size="11.5" text-anchor="middle">lin2</text>
  <text x="472" y="220" fill="#60a5fa" font-size="11" text-anchor="middle">QISQARTIRISH</text>

  <rect x="554" y="130" width="70" height="70" rx="8" fill="#14532d" stroke="#4ade80" stroke-width="2"/>
  <text x="589" y="162" fill="#dcfce7" font-size="13" font-weight="700" text-anchor="middle">768</text>
  <text x="589" y="180" fill="#86efac" font-size="10.5" text-anchor="middle">chiqish</text>

  <!-- GELU vs ReLU -->
  <rect x="646" y="82" width="204" height="166" rx="11" fill="#1e293b" stroke="#64748b"/>
  <text x="748" y="104" fill="#cbd5e1" font-size="12.5" font-weight="700" text-anchor="middle">GELU vs ReLU</text>
  <text x="668" y="126" fill="#94a3b8" font-size="11" font-family="Consolas, monospace">   x     GELU     ReLU</text>
  <text x="668" y="146" fill="#f87171" font-size="11" font-family="Consolas, monospace">-3.0  -0.0040    0.0</text>
  <text x="668" y="164" fill="#fbbf24" font-size="11" font-family="Consolas, monospace">-1.0  -0.1587    0.0</text>
  <text x="668" y="182" fill="#fbbf24" font-size="11" font-family="Consolas, monospace">-0.5  -0.1543    0.0</text>
  <text x="668" y="200" fill="#94a3b8" font-size="11" font-family="Consolas, monospace"> 0.5   0.3457    0.5</text>
  <text x="668" y="218" fill="#94a3b8" font-size="11" font-family="Consolas, monospace"> 1.0   0.8413    1.0</text>
  <text x="748" y="238" fill="#86efac" font-size="10.5" text-anchor="middle">GELU manfiyni SAQLAYDI</text>

  <!-- notes -->
  <rect x="30" y="264" width="410" height="80" rx="10" fill="#1e293b" stroke="#f59e0b"/>
  <text x="235" y="285" fill="#fde68a" font-size="12.5" font-weight="700" text-anchor="middle">NIMA UCHUN CHIZIQSIZLIK?</text>
  <text x="52" y="307" fill="#cbd5e1" font-size="11.5" font-family="Consolas, monospace">W₂ · (W₁ · x) = (W₂·W₁) · x = W · x</text>
  <text x="235" y="328" fill="#fca5a5" font-size="11.5" text-anchor="middle">aktivatsiyasiz 6 qatlam = 1 qatlamga TENG</text>

  <rect x="454" y="264" width="396" height="80" rx="10" fill="#1e293b" stroke="#4ade80"/>
  <text x="652" y="285" fill="#86efac" font-size="12.5" font-weight="700" text-anchor="middle">O'LCHANGAN (distilbert)</text>
  <text x="476" y="307" fill="#cbd5e1" font-size="11.5">bitta FFN: 4 722 432  ·  6 qatlam: 28 334 592</text>
  <text x="652" y="328" fill="#bbf7d0" font-size="11.5" text-anchor="middle">har token MUSTAQIL → TO'LIQ PARALLEL ⚡</text>
</svg>
