<svg xmlns="http://www.w3.org/2000/svg" viewBox="0 0 860 460" width="860" height="460" font-family="Segoe UI, Arial, sans-serif">
  <rect width="860" height="460" fill="#f7f9fc"/>
  <text x="430" y="32" text-anchor="middle" font-size="22" font-weight="bold" fill="#1a2b4c">SVD — matritsani uchga ajratish</text>

  <text x="430" y="66" text-anchor="middle" font-size="26" font-weight="bold" fill="#334155">M  =  U  ×  Σ  ×  Vᵀ</text>

  <rect x="30" y="96" width="180" height="150" rx="10" fill="#e2e8f0" stroke="#64748b" stroke-width="2.5"/>
  <text x="120" y="122" text-anchor="middle" font-size="17" font-weight="bold" fill="#334155">M</text>
  <text x="120" y="142" text-anchor="middle" font-size="12" fill="#475569">HUJJAT × TERMIN</text>
  <rect x="52" y="152" width="136" height="76" fill="#ffffff" stroke="#94a3b8"/>
  <g font-size="11" font-family="Consolas, monospace" fill="#334155">
    <text x="66" y="170">     the cat dog</text>
    <text x="66" y="188">D1    1   1   0</text>
    <text x="66" y="206">D2    1   0   1</text>
    <text x="66" y="222">D3    1   1   0</text>
  </g>
  <text x="120" y="262" text-anchor="middle" font-size="12" font-style="italic" fill="#64748b">ASL ma'lumot</text>

  <text x="228" y="180" text-anchor="middle" font-size="24" font-weight="bold" fill="#475569">=</text>

  <rect x="248" y="96" width="170" height="150" rx="10" fill="#dbeafe" stroke="#2563eb" stroke-width="2.5"/>
  <text x="333" y="122" text-anchor="middle" font-size="17" font-weight="bold" fill="#1e40af">U</text>
  <text x="333" y="142" text-anchor="middle" font-size="12" fill="#2563eb">HUJJAT × MAVZU</text>
  <rect x="268" y="152" width="130" height="76" fill="#ffffff" stroke="#93c5fd"/>
  <g font-size="11" font-family="Consolas, monospace" fill="#334155">
    <text x="282" y="170">      M0    M1</text>
    <text x="282" y="188">D1  0.82  0.12</text>
    <text x="282" y="206">D2  0.15  0.91</text>
    <text x="282" y="222">D3  0.79  0.09</text>
  </g>
  <text x="333" y="262" text-anchor="middle" font-size="11.5" font-weight="bold" fill="#1e40af">"Hujjat qaysi mavzuda?"</text>

  <text x="434" y="180" text-anchor="middle" font-size="24" font-weight="bold" fill="#475569">×</text>

  <rect x="452" y="96" width="130" height="150" rx="10" fill="#fef3c7" stroke="#d97706" stroke-width="2.5"/>
  <text x="517" y="122" text-anchor="middle" font-size="17" font-weight="bold" fill="#92400e">Σ</text>
  <text x="517" y="142" text-anchor="middle" font-size="12" fill="#d97706">MAVZU KUCHI</text>
  <rect x="470" y="152" width="94" height="76" fill="#ffffff" stroke="#fcd34d"/>
  <g font-size="12" font-family="Consolas, monospace" fill="#334155">
    <text x="486" y="176">4.82</text>
    <text x="486" y="198">2.31</text>
    <text x="486" y="220">1.05</text>
  </g>
  <text x="534" y="176" font-size="9.5" fill="#dc2626">kuchli</text>
  <text x="534" y="220" font-size="9.5" fill="#94a3b8">kuchsiz</text>
  <text x="517" y="262" text-anchor="middle" font-size="11.5" font-weight="bold" fill="#92400e">"Qanchalik MUHIM?"</text>

  <text x="598" y="180" text-anchor="middle" font-size="24" font-weight="bold" fill="#475569">×</text>

  <rect x="616" y="96" width="214" height="150" rx="10" fill="#dcfce7" stroke="#16a34a" stroke-width="2.5"/>
  <text x="723" y="122" text-anchor="middle" font-size="17" font-weight="bold" fill="#166534">Vᵀ</text>
  <text x="723" y="142" text-anchor="middle" font-size="12" fill="#16a34a">MAVZU × TERMIN</text>
  <rect x="636" y="152" width="174" height="76" fill="#ffffff" stroke="#86efac"/>
  <g font-size="11" font-family="Consolas, monospace" fill="#334155">
    <text x="650" y="170">       the   cat   dog</text>
    <text x="650" y="192">M0    0.21  0.68  0.05</text>
    <text x="650" y="214">M1    0.19  0.03  0.72</text>
  </g>
  <text x="723" y="262" text-anchor="middle" font-size="11.5" font-weight="bold" fill="#166534">"Mavzuda qaysi SO'ZLAR?"</text>

  <rect x="30" y="292" width="800" height="86" rx="10" fill="#faf5ff" stroke="#7c3aed" stroke-width="2.5"/>
  <text x="430" y="316" text-anchor="middle" font-size="16" font-weight="bold" fill="#6d28d9">O'LCHOVNI KAMAYTIRISH</text>
  <rect x="150" y="330" width="240" height="32" rx="6" fill="#ddd6fe" stroke="#a78bfa"/>
  <text x="270" y="351" text-anchor="middle" font-size="13" font-weight="bold" fill="#5b21b6">100 hujjat × 8663 so'z</text>
  <text x="430" y="352" text-anchor="middle" font-size="20" fill="#7c3aed">→</text>
  <rect x="470" y="330" width="240" height="32" rx="6" fill="#c4b5fd" stroke="#7c3aed"/>
  <text x="590" y="351" text-anchor="middle" font-size="13" font-weight="bold" fill="#4c1d95">100 hujjat × 5 mavzu</text>
  <text x="750" y="351" font-size="12" font-weight="bold" fill="#dc2626">99.94%!</text>

  <rect x="30" y="392" width="800" height="52" rx="10" fill="#fef9c3" stroke="#ca8a04" stroke-width="2"/>
  <text x="430" y="414" text-anchor="middle" font-size="13.5" font-weight="bold" fill="#854d0e">TAQSIMOT GIPOTEZASI: "O'xshash ma'noli so'zlar BIRGA uchraydi"</text>
  <text x="430" y="434" text-anchor="middle" font-size="12.5" fill="#a16207">"doctor" va "nurse" bir xil qo'shnilarga ega → bir xil ma'no → BIR MAVZU</text>
</svg>
